<svg width="16" height="7" viewBox="0 0 16 7" fill="none" xmlns="http://www.w3.org/2000/svg">
<g clip-path="url(#clip0_5_19)">
<path d="M1.56836 1.25879C1.20655 1.68401 0.9437 2.17645 0.78418 2.62793C0.63149 3.0601 0.46863 3.9524 0.616211 4.75781C0.690816 5.16488 0.850377 5.58138 1.16309 5.89844C1.48417 6.22398 1.93409 6.41113 2.51562 6.41113C3.17123 6.41103 3.95673 5.99172 4.69141 5.23242C4.70891 5.21433 4.7247 5.1943 4.74219 5.17578C4.73242 5.18754 4.72373 5.20021 4.71387 5.21191C4.10005 5.94006 3.34176 6.52236 2.47266 6.62891C2.06204 6.67922 1.4782 6.66447 1.03906 6.32227C0.621714 5.997 0.227871 5.28651 0.385742 3.69434C0.48237 2.72009 0.961092 1.8651 1.56836 1.25879ZM14.707 0.356445C14.895 0.356455 15.0216 0.413656 15.1172 0.504883C15.2204 0.603414 15.3137 0.767635 15.3779 1.02148C15.5081 1.53625 15.4903 2.30756 15.3311 3.26562C15.3107 3.38803 15.2705 3.54946 15.2178 3.75391C15.1667 3.95188 15.1066 4.18151 15.0566 4.41992C14.9591 4.88563 14.8851 5.44423 15.0156 5.92969C15.0536 6.07091 15.1432 6.1622 15.2393 6.21777C15.1272 6.26398 15.0282 6.29109 14.9473 6.2959C14.8517 6.30153 14.8054 6.27823 14.7695 6.2373C14.72 6.18066 14.6466 6.03861 14.626 5.7168C14.627 5.64722 14.6413 5.52867 14.6699 5.35547C14.6987 5.18107 14.7383 4.97288 14.7832 4.73828C14.872 4.27394 14.9787 3.71437 15.041 3.17773C15.1023 2.65 15.126 2.10198 15.0254 1.67285C14.9745 1.45593 14.8849 1.23751 14.7227 1.07031C14.5506 0.893127 14.3234 0.800798 14.0605 0.800781C13.9096 0.800781 13.7676 0.822463 13.6338 0.861328C13.9829 0.55952 14.3561 0.356445 14.707 0.356445ZM11.1143 0.354492C11.3506 0.379572 11.5941 0.550044 11.791 0.835938C11.9862 1.11951 12.0936 1.45994 12.0938 1.72168V2.67578C12.0467 2.80248 12.0023 2.93162 11.9619 3.0625C11.6457 4.08691 11.5011 5.28051 11.459 6.17578H11.1631C11.4018 5.17319 11.6433 4.01062 11.7158 3.04883C11.7569 2.50296 11.7476 1.98344 11.6318 1.58691C11.5732 1.38629 11.4797 1.18983 11.3262 1.04102C11.164 0.883819 10.9558 0.800781 10.7197 0.800781C10.3649 0.800882 10.0564 0.917451 9.79199 1.10645C9.85722 1.02881 9.92971 0.948827 10.0088 0.871094C10.3499 0.535903 10.7352 0.31427 11.1143 0.354492ZM8.15625 4.91699C8.088 5.36655 8.04275 5.79786 8.01758 6.17578H7.85352C7.97161 5.76603 8.07237 5.3403 8.15625 4.91699ZM6.9082 1.22559C6.97732 1.06655 7.05938 0.914824 7.16113 0.78125C7.34981 0.533701 7.60596 0.356457 8.02637 0.356445C8.40897 0.356445 8.84371 0.705223 8.75586 1.45215L9.29297 1.60547C8.99118 2.00544 8.76007 2.51808 8.58301 3.05664C8.45655 3.44129 8.35547 3.85016 8.27344 4.25781C8.34259 3.8138 8.39118 3.38276 8.41602 2.9873C8.4504 2.43949 8.44156 1.94042 8.37598 1.56055C8.3435 1.37254 8.29361 1.19083 8.21289 1.04297C8.13312 0.896942 7.99242 0.73187 7.76367 0.691406C7.75526 0.68991 7.75216 0.68848 7.73242 0.68457C7.71678 0.681473 7.69139 0.67692 7.66309 0.673828C7.60155 0.667146 7.52217 0.667985 7.43359 0.697266C7.26679 0.752466 7.14333 0.884114 7.03613 1.03223C6.99706 1.08622 6.95413 1.14992 6.9082 1.22559Z" fill="#131212" stroke="#131212" stroke-width="0.7"/>
</g>
<defs>
<clipPath id="clip0_5_19">
<rect width="16" height="7" fill="white"/>
</clipPath>
</defs>
</svg>
