<svg width="20" height="16" viewBox="0 0 20 16" fill="none" xmlns="http://www.w3.org/2000/svg">
<g clip-path="url(#clip0_435_743)">
<path d="M15.145 7.613V8.12848L15.6602 8.11277C16.9973 8.07198 17.9349 8.63661 18.551 9.39442C19.1812 10.1695 19.471 11.1449 19.471 11.871C19.471 13.6177 17.9413 15.5 15.663 15.5C14.1882 15.5 13.1246 14.9269 12.4201 14.0651C11.7052 13.1905 11.333 11.9831 11.333 10.693C11.333 7.89163 12.9399 5.3382 14.809 3.45635C15.7379 2.52112 16.7143 1.76994 17.5504 1.25576C17.9687 0.998545 18.3452 0.804758 18.6575 0.676903C18.982 0.544 19.1951 0.5 19.301 0.5C19.4412 0.5 19.5 0.59441 19.5 0.663C19.5 0.687066 19.4936 0.720039 19.4667 0.760717C19.4391 0.802281 19.3824 0.862819 19.2688 0.92325C18.2626 1.45675 17.2407 2.59808 16.479 3.82208C15.7186 5.044 15.145 6.46473 15.145 7.613ZM4.312 7.613V8.12848L4.82724 8.11277C6.16434 8.07198 7.10191 8.63661 7.71805 9.39442C8.34818 10.1695 8.638 11.1449 8.638 11.871C8.638 13.6176 7.10735 15.5 4.83 15.5C3.35467 15.5 2.29113 14.9269 1.58677 14.0651C0.87202 13.1905 0.5 11.9831 0.5 10.693C0.5 7.89161 2.10663 5.33818 3.97564 3.45634C4.90449 2.52111 5.88082 1.76994 6.71701 1.25576C7.1353 0.998555 7.51185 0.80477 7.82415 0.676916C8.14876 0.544023 8.36193 0.5 8.468 0.5C8.60764 0.5 8.667 0.594885 8.667 0.663C8.667 0.687066 8.66063 0.720039 8.63368 0.760717C8.60614 0.802281 8.54942 0.862819 8.43578 0.92325C7.42956 1.45675 6.40767 2.59808 5.64599 3.82208C4.88559 5.044 4.312 6.46473 4.312 7.613Z" stroke="black"/>
</g>
<defs>
<clipPath id="clip0_435_743">
<rect width="20" height="16" fill="white"/>
</clipPath>
</defs>
</svg>
